<svg width="48" height="48" viewBox="0 0 48 48" fill="none" xmlns="http://www.w3.org/2000/svg">
<g clip-path="url(#clip0_15_2)">
<rect width="48" height="48" rx="4" fill="#003087"/>
<mask id="mask0_15_2" style="mask-type:luminance" maskUnits="userSpaceOnUse" x="0" y="0" width="48" height="48">
<path d="M0 0H48V48H0V0Z" fill="white"/>
</mask>
<g mask="url(#mask0_15_2)">
<path d="M14 9C14 8.73478 14.1054 8.48043 14.2929 8.29289C14.4804 8.10536 14.7348 8 15 8H23C23.2652 8 23.5196 8.10536 23.7071 8.29289C23.8946 8.48043 24 8.73478 24 9V11C24 11.2652 23.8946 11.5196 23.7071 11.7071C23.5196 11.8946 23.2652 12 23 12H15C14.7348 12 14.4804 11.8946 14.2929 11.7071C14.1054 11.5196 14 11.2652 14 11V9ZM14 18V21H11V23H14V26H16V23H19V21H16V18H14ZM12 29C11.7348 29 11.4804 29.1054 11.2929 29.2929C11.1054 29.4804 11 29.7348 11 30C11 30.2652 11.1054 30.5196 11.2929 30.7071C11.4804 30.8946 11.7348 31 12 31H26C26.2652 31 26.5196 30.8946 26.7071 30.7071C26.8946 30.5196 27 30.2652 27 30C27 29.7348 26.8946 29.4804 26.7071 29.2929C26.5196 29.1054 26.2652 29 26 29H12ZM11 35C11 34.7348 11.1054 34.4804 11.2929 34.2929C11.4804 34.1054 11.7348 34 12 34H26C26.2652 34 26.5196 34.1054 26.7071 34.2929C26.8946 34.4804 27 34.7348 27 35C27 35.2652 26.8946 35.5196 26.7071 35.7071C26.5196 35.8946 26.2652 36 26 36H12C11.7348 36 11.4804 35.8946 11.2929 35.7071C11.1054 35.5196 11 35.2652 11 35Z" fill="white"/>
<path fill-rule="evenodd" clip-rule="evenodd" d="M48 0H0V48H48V0ZM15 6C14.2044 6 13.4413 6.31607 12.8787 6.87868C12.3161 7.44129 12 8.20435 12 9H9C8.20435 9 7.44129 9.31607 6.87868 9.87868C6.31607 10.4413 6 11.2044 6 12V39C6 39.7957 6.31607 40.5587 6.87868 41.1213C7.44129 41.6839 8.20435 42 9 42H29C29.7956 42 30.5587 41.6839 31.1213 41.1213C31.6839 40.5587 32 39.7957 32 39V12C32 11.2044 31.6839 10.4413 31.1213 9.87868C30.5587 9.31607 29.7956 9 29 9H26C26 8.20435 25.6839 7.44129 25.1213 6.87868C24.5587 6.31607 23.7956 6 23 6H15ZM36 18C36 17.2044 36.3161 16.4413 36.8787 15.8787C37.4413 15.3161 38.2043 15 39 15C39.7957 15 40.5587 15.3161 41.1213 15.8787C41.6839 16.4413 42 17.2044 42 18V21H36V18ZM36 38V23H42V38L39 42L36 38Z" fill="white"/>
</g>
</g>
<defs>
<clipPath id="clip0_15_2">
<rect width="48" height="48" rx="4" fill="white"/>
</clipPath>
</defs>
</svg>
